<svg width="38" height="38" viewBox="0 0 38 38" fill="none" xmlns="http://www.w3.org/2000/svg">
<path d="M22.1666 3.16675H9.49998C8.66013 3.16675 7.85467 3.50038 7.26081 4.09424C6.66694 4.68811 6.33331 5.49356 6.33331 6.33341V31.6667C6.33331 32.5066 6.66694 33.3121 7.26081 33.9059C7.85467 34.4998 8.66013 34.8334 9.49998 34.8334H28.5C29.3398 34.8334 30.1453 34.4998 30.7392 33.9059C31.333 33.3121 31.6666 32.5066 31.6666 31.6667V12.6667L22.1666 3.16675Z" stroke="white" stroke-width="2" stroke-linecap="round" stroke-linejoin="round"/>
<path d="M22.1667 3.16675V12.6667H31.6667" stroke="white" stroke-width="2" stroke-linecap="round" stroke-linejoin="round"/>
<path d="M25.3334 20.5833H12.6667" stroke="white" stroke-width="2" stroke-linecap="round" stroke-linejoin="round"/>
<path d="M25.3334 26.9167H12.6667" stroke="white" stroke-width="2" stroke-linecap="round" stroke-linejoin="round"/>
<path d="M15.8334 14.25H14.25H12.6667" stroke="white" stroke-width="2" stroke-linecap="round" stroke-linejoin="round"/>
</svg>
