<svg width="38" height="38" viewBox="0 0 38 38" fill="none" xmlns="http://www.w3.org/2000/svg">
<path d="M19 22.1666C20.7489 22.1666 22.1666 20.7488 22.1666 18.9999C22.1666 17.251 20.7489 15.8333 19 15.8333C17.2511 15.8333 15.8333 17.251 15.8333 18.9999C15.8333 20.7488 17.2511 22.1666 19 22.1666Z" stroke="white" stroke-width="2" stroke-linecap="round" stroke-linejoin="round"/>
<path d="M25.7133 12.2867C26.5966 13.169 27.2973 14.2168 27.7754 15.3701C28.2535 16.5233 28.4996 17.7595 28.4996 19.008C28.4996 20.2564 28.2535 21.4926 27.7754 22.6459C27.2973 23.7992 26.5966 24.8469 25.7133 25.7292M12.2867 25.7134C11.4034 24.8311 10.7027 23.7834 10.2246 22.6301C9.74652 21.4768 9.50044 20.2406 9.50044 18.9922C9.50044 17.7437 9.74652 16.5075 10.2246 15.3542C10.7027 14.2009 11.4034 13.1532 12.2867 12.2709M30.1942 7.80591C33.1625 10.7751 34.8299 14.8016 34.8299 19.0001C34.8299 23.1985 33.1625 27.2251 30.1942 30.1942M7.80583 30.1942C4.83754 27.2251 3.17004 23.1985 3.17004 19.0001C3.17004 14.8016 4.83754 10.7751 7.80583 7.80591" stroke="white" stroke-width="2" stroke-linecap="round" stroke-linejoin="round"/>
</svg>
